<svg xmlns="http://www.w3.org/2000/svg" version="1.1" xmlns:xlink="http://www.w3.org/1999/xlink" xmlns:svgjs="http://svgjs.dev/svgjs" width="100%" height="100%" viewBox="0 0 1000 600"><rect width="1000" height="600" x="0" y="0" fill="#512a0c"/><g><rect width="333.3333333333333" height="333.3333333333333" y="257.0202444204577" fill="#fcd200" transform="matrix(0.5323725997093807,0,0,0.5323725997093806,0,74.44072758634516)" x="234.7980194091797"/><path d="M319.73391265998714 367.91768896498394L281.27237670646775 367.91768896498394L281.27237670646775 351.57153618473814L376.4646781914282 351.57153618473814L376.4646781914282 367.91768896498394L338.00314223790883 367.91768896498394L338.00314223790883 495.8022960104359L319.73391265998714 495.8022960104359L319.73391265998714 367.91768896498394ZM469.0928772794874 498.6869112069498L469.0928772794874 498.6869112069498Q453.54800649827337 498.6869112069498 439.8621099548127 492.82152697403814Q426.1441621313908 486.9881940210877 415.8236499838631 476.73178443348246Q405.4710865563741 466.4753748458773 399.6377536034237 452.85358086233924Q393.77236937051197 439.2317868788011 393.77236937051197 423.686916097587L393.77236937051197 423.686916097587Q393.77236937051197 408.14204531637296 399.6377536034237 394.5202513328348Q405.4710865563741 380.8984573492967 415.8236499838631 370.6420477616916Q426.1441621313908 360.38563817408635 439.8621099548127 354.52025394117464Q453.54800649827337 348.68692098822424 469.0928772794874 348.68692098822424L469.0928772794874 348.68692098822424Q484.47749166089517 348.68692098822424 497.93902924462697 354.35999754136833Q511.40056682835876 360.06512537447367 521.656976415964 370.0010221624662L521.656976415964 370.0010221624662L516.368515222355 392.11640533573984Q508.9967208312638 380.25743175007136 496.5928754862538 373.1420475986703Q484.15697886128254 365.99461216730793 469.0928772794874 365.99461216730793L469.0928772794874 365.99461216730793Q453.2274936986607 365.99461216730793 440.503135554038 373.75102191793434Q427.7467261294541 381.53948294852205 420.2146753385565 394.58435389275735Q412.682624547659 407.66127611695396 412.682624547659 423.686916097587L412.682624547659 423.686916097587Q412.682624547659 439.55229967841376 420.2146753385565 452.69332446253287Q427.7467261294541 465.83434924665204 440.503135554038 473.59075899727844Q453.2274936986607 481.3792200278661 469.0928772794874 481.3792200278661L469.0928772794874 481.3792200278661Q484.31723526108885 481.3792200278661 496.6569780461763 474.1676820365812Q508.9967208312638 466.9561440452963 516.368515222355 455.2574268594342L516.368515222355 455.2574268594342L521.656976415964 477.37281003270783Q511.40056682835876 487.148450420894 497.93902924462697 492.9176808139219Q484.47749166089517 498.6869112069498 469.0928772794874 498.6869112069498Z " fill="#512a0c" transform="matrix(0.5323725997093807,0,0,0.5323725997093806,0,74.44072758634516)"/><path d="M687.8283196053313 375.0505478373479L651.464683241695 375.0505478373479L651.464683241695 359.59600238280245L741.464683241695 359.59600238280245L741.464683241695 375.0505478373479L705.1010468780586 375.0505478373479L705.1010468780586 495.9596387464388L687.8283196053313 495.9596387464388L687.8283196053313 375.0505478373479ZM779.6465014235132 495.9596387464388L763.2828650598767 495.9596387464388L763.2828650598767 350.5050932918934L779.6465014235132 350.5050932918934L779.6465014235132 417.92933571613577Q784.7980165750282 410.80812359492364 792.373774150786 407.0202448070449Q799.9495317265435 403.2323660191661 808.5858953629072 403.2323660191661L808.5858953629072 403.2323660191661Q818.2828650598767 403.2323660191661 826.525289302301 407.98994177674183Q834.7980165750282 412.77782056462064 839.9495317265435 421.77782056462064Q845.1010468780587 430.80812359492364 845.1010468780587 443.6869114737115L845.1010468780587 443.6869114737115L845.1010468780587 495.9596387464388L828.7374105144222 495.9596387464388L828.7374105144222 445.9596387464388Q828.7374105144222 435.2020629888631 822.3131680901799 426.92933571613577Q815.8586226356344 418.6869114737115 804.1919559689677 418.6869114737115L804.1919559689677 418.6869114737115Q794.6465014235132 418.6869114737115 787.1313499083617 425.5656993524994Q779.6465014235132 432.47479026159033 779.6465014235132 445.5050932918934L779.6465014235132 445.5050932918934L779.6465014235132 495.9596387464388ZM888.7374105144222 495.9596387464388L872.373774150786 495.9596387464388L872.373774150786 405.0505478373479L888.7374105144222 405.0505478373479L888.7374105144222 495.9596387464388ZM880.555592332604 388.6869114737115L880.555592332604 388.6869114737115Q876.0101377871495 388.6869114737115 872.8283196053314 385.50509329189333Q869.6465014235132 382.3232751100752 869.6465014235132 377.77782056462064L869.6465014235132 377.77782056462064Q869.6465014235132 373.08085086765095 872.8283196053314 369.9596387464388Q876.0101377871495 366.8687296555297 880.555592332604 366.8687296555297L880.555592332604 366.8687296555297Q885.2525620295737 366.8687296555297 888.373774150786 369.9596387464388Q891.464683241695 373.08085086765095 891.464683241695 377.77782056462064L891.464683241695 377.77782056462064Q891.464683241695 382.3232751100752 888.373774150786 385.50509329189333Q885.2525620295737 388.6869114737115 880.555592332604 388.6869114737115ZM934.1919559689677 495.9596387464388L917.8283196053314 495.9596387464388L917.8283196053314 405.0505478373479L932.9798347568465 405.0505478373479L932.9798347568465 419.74751753431764Q937.9798347568465 411.7172145040146 945.9495317265435 407.47479026159033Q953.8889256659374 403.2323660191661 963.1313499083617 403.2323660191661L963.1313499083617 403.2323660191661Q972.8283196053314 403.2323660191661 981.0707438477557 407.98994177674183Q989.343471120483 412.77782056462064 994.494986271998 421.77782056462064Q999.6465014235132 430.80812359492364 999.6465014235132 443.6869114737115L999.6465014235132 443.6869114737115L999.6465014235132 495.9596387464388L983.2828650598769 495.9596387464388L983.2828650598769 445.9596387464388Q983.2828650598769 435.2020629888631 976.8586226356344 426.92933571613577Q970.404077181089 418.6869114737115 958.7374105144222 418.6869114737115L958.7374105144222 418.6869114737115Q949.1919559689677 418.6869114737115 941.6768044538162 425.5656993524994Q934.1919559689677 432.47479026159033 934.1919559689677 445.5050932918934L934.1919559689677 445.5050932918934L934.1919559689677 495.9596387464388ZM1106.9192286962405 495.9596387464388L1086.1616529386647 495.9596387464388L1045.1010468780587 445.9596387464388L1078.8889256659374 405.0505478373479L1097.8283196053312 405.0505478373479L1064.6465014235132 444.74751753431764L1106.9192286962405 495.9596387464388ZM1043.2828650598767 495.9596387464388L1026.9192286962405 495.9596387464388L1026.9192286962405 350.5050932918934L1043.2828650598767 350.5050932918934L1043.2828650598767 495.9596387464388ZM1138.7374105144222 495.9596387464388L1122.373774150786 495.9596387464388L1122.373774150786 405.0505478373479L1137.525289302301 405.0505478373479L1137.525289302301 419.74751753431764Q1142.525289302301 411.7172145040146 1150.464683241695 407.47479026159033Q1158.434380211392 403.2323660191661 1167.6768044538162 403.2323660191661L1167.6768044538162 403.2323660191661Q1177.3737741507857 403.2323660191661 1185.6465014235132 407.98994177674183Q1193.8889256659374 412.77782056462064 1199.0404408174525 421.77782056462064Q1204.1919559689677 430.80812359492364 1204.1919559689677 443.6869114737115L1204.1919559689677 443.6869114737115L1204.1919559689677 495.9596387464388L1187.8283196053314 495.9596387464388L1187.8283196053314 445.9596387464388Q1187.8283196053314 435.2020629888631 1181.404077181089 426.92933571613577Q1174.9495317265435 418.6869114737115 1163.2828650598767 418.6869114737115L1163.2828650598767 418.6869114737115Q1153.7374105144222 418.6869114737115 1146.252562029574 425.5656993524994Q1138.7374105144222 432.47479026159033 1138.7374105144222 445.5050932918934L1138.7374105144222 445.5050932918934L1138.7374105144222 495.9596387464388ZM1297.2222589992707 498.6869114737115L1297.2222589992707 498.6869114737115Q1282.5252893023012 498.6869114737115 1269.5858953629072 493.141456928257Q1256.6161983932102 487.6263054131055 1246.8586226356344 477.92933571613577Q1237.0707438477557 468.2323660191661 1231.525289302301 455.3535781403782Q1226.0101377871495 442.47479026159033 1226.0101377871495 427.77782056462064L1226.0101377871495 427.77782056462064Q1226.0101377871495 413.08085086765095 1231.525289302301 400.2020629888631Q1237.0707438477557 387.32327511007514 1246.8586226356344 377.6263054131055Q1256.6161983932102 367.92933571613577 1269.5858953629072 362.38388117068126Q1282.5252893023012 356.86872965552976 1297.2222589992707 356.86872965552976L1297.2222589992707 356.86872965552976Q1311.7677135447254 356.86872965552976 1324.4949862719982 362.2323660191661Q1337.2222589992707 367.6263054131055 1346.9192286962407 377.0202448070449L1346.9192286962407 377.0202448070449L1341.9192286962407 397.92933571613577Q1334.9495317265435 386.7172145040146 1323.1919559689677 379.98994177674183Q1311.464683241695 373.2323660191661 1297.2222589992707 373.2323660191661L1297.2222589992707 373.2323660191661Q1282.2222589992707 373.2323660191661 1270.1616529386647 380.56569935249945Q1258.1313499083617 387.92933571613577 1251.0101377871495 400.26266904946914Q1243.8889256659374 412.6263054131055 1243.8889256659374 427.77782056462064L1243.8889256659374 427.77782056462064Q1243.8889256659374 442.77782056462064 1251.0101377871495 455.2020629888631Q1258.1313499083617 467.6263054131055 1270.1616529386647 474.9596387464388Q1282.2222589992707 482.32327511007514 1297.2222589992707 482.32327511007514L1297.2222589992707 482.32327511007514Q1311.6161983932102 482.32327511007514 1323.2828650598767 475.5050932918934Q1334.9495317265435 468.6869114737115 1341.9192286962407 457.6263054131055L1341.9192286962407 457.6263054131055L1346.9192286962407 478.5353963221964Q1337.2222589992707 487.77782056462064 1324.4949862719982 493.2323660191661Q1311.7677135447254 498.6869114737115 1297.2222589992707 498.6869114737115ZM1384.1919559689677 495.9596387464388L1367.8283196053314 495.9596387464388L1367.8283196053314 350.5050932918934L1384.1919559689677 350.5050932918934L1384.1919559689677 417.92933571613577Q1389.343471120483 410.80812359492364 1396.9192286962407 407.0202448070449Q1404.4949862719982 403.2323660191661 1413.1313499083617 403.2323660191661L1413.1313499083617 403.2323660191661Q1422.8283196053312 403.2323660191661 1431.1010468780587 407.98994177674183Q1439.3434711204827 412.77782056462064 1444.4949862719982 421.77782056462064Q1449.6465014235132 430.80812359492364 1449.6465014235132 443.6869114737115L1449.6465014235132 443.6869114737115L1449.6465014235132 495.9596387464388L1433.2828650598767 495.9596387464388L1433.2828650598767 445.9596387464388Q1433.2828650598767 435.2020629888631 1426.8283196053312 426.92933571613577Q1420.404077181089 418.6869114737115 1408.7374105144222 418.6869114737115L1408.7374105144222 418.6869114737115Q1399.1919559689677 418.6869114737115 1391.7071074841192 425.5656993524994Q1384.1919559689677 432.47479026159033 1384.1919559689677 445.5050932918934L1384.1919559689677 445.5050932918934L1384.1919559689677 495.9596387464388ZM1520.252562029574 497.77782056462064L1520.252562029574 497.77782056462064Q1506.0101377871497 497.77782056462064 1494.7374105144224 491.41418420098427Q1483.434380211392 485.0505478373479 1476.9798347568465 474.0505478373479Q1470.555592332604 463.08085086765095 1470.555592332604 449.59600238280245L1470.555592332604 449.59600238280245Q1470.555592332604 436.7172145040146 1476.7677135447252 426.17175995856Q1482.9798347568467 415.6566084434085 1493.494986271998 409.44448723128727Q1504.0404408174527 403.2323660191661 1516.7677135447252 403.2323660191661L1516.7677135447252 403.2323660191661Q1529.3434711204832 403.2323660191661 1539.7980165750284 409.2020629888631Q1550.2525620295737 415.2020629888631 1556.4646832416952 425.3535781403782Q1562.6768044538164 435.5050932918934 1562.6768044538164 448.38388117068126L1562.6768044538164 448.38388117068126L1562.6768044538164 455.0505478373479L1503.2828650598767 455.0505478373479Q1499.3434711204827 455.0505478373479 1495.252562029574 454.74751753431764Q1491.1616529386647 454.44448723128727 1487.2222589992707 453.8384266252267L1487.2222589992707 453.8384266252267Q1488.8889256659377 465.9596387464388 1498.1919559689677 474.141456928257Q1507.5252893023012 482.32327511007514 1520.404077181089 482.32327511007514L1520.404077181089 482.32327511007514Q1529.0404408174527 482.32327511007514 1536.4646832416952 478.38388117068126Q1543.8889256659372 474.44448723128727 1548.434380211392 467.92933571613577L1548.434380211392 467.92933571613577L1552.9798347568465 486.5656993524994Q1546.4646832416952 491.86872965552976 1538.0707438477557 494.80812359492364Q1529.6465014235132 497.77782056462064 1520.252562029574 497.77782056462064ZM1486.7677135447252 442.77782056462064L1486.7677135447252 442.77782056462064Q1494.9495317265437 441.41418420098427 1503.2828650598767 441.41418420098427L1503.2828650598767 441.41418420098427L1533.434380211392 441.41418420098427Q1536.7677135447252 441.41418420098427 1540.0404408174527 441.6263054131055Q1543.2828650598767 441.8687296555297 1546.6161983932102 442.17175995856L1546.6161983932102 442.17175995856Q1544.4949862719982 431.5656993524994 1536.0101377871497 424.6566084434085Q1527.5252893023012 417.77782056462064 1516.7677135447252 417.77782056462064L1516.7677135447252 417.77782056462064Q1505.7071074841192 417.77782056462064 1497.373774150786 425.11115389795395Q1489.0404408174527 432.47479026159033 1486.7677135447252 442.77782056462064ZM1611.4646832416952 495.9596387464388L1595.1010468780587 495.9596387464388L1595.1010468780587 418.6869114737115L1574.494986271998 418.6869114737115L1574.494986271998 405.0505478373479L1595.555592332604 405.0505478373479L1595.555592332604 378.98994177674183Q1595.555592332604 364.141456928257 1604.3434711204832 356.41418420098427Q1613.1313499083617 348.6869114737115 1625.2525620295737 348.6869114737115L1625.2525620295737 348.6869114737115Q1629.7980165750284 348.6869114737115 1634.5555923326042 349.74751753431764Q1639.3434711204827 350.80812359492364 1643.5858953629072 353.38388117068126L1643.5858953629072 353.38388117068126L1639.6465014235132 369.29297207977214Q1633.2828650598767 362.32327511007514 1624.7980165750284 362.32327511007514L1624.7980165750284 362.32327511007514Q1619.6465014235132 362.32327511007514 1615.3434711204832 365.80812359492364Q1611.0101377871497 369.29297207977214 1611.0101377871497 379.29297207977214L1611.0101377871497 379.29297207977214L1611.0101377871497 405.0505478373479L1633.5858953629072 405.0505478373479L1633.5858953629072 418.6869114737115L1611.4646832416952 418.6869114737115L1611.4646832416952 495.9596387464388Z " fill="#fcd200" transform="matrix(0.5323725997093807,0,0,0.5323725997093806,0,74.44072758634516)"/></g></svg>